Coordinates
version=1
nRows=14
nColumns=40
inDegrees=yes

Units are S.I. units (second, meters, Newtons, ...)
If the header above contains a line with 'inDegrees', this indicates whether rotational values are in degrees (yes) or radians (no).

endheader
time	pelvis_tilt	pelvis_list	pelvis_rotation	pelvis_tx	pelvis_ty	pelvis_tz	hip_flexion_r	hip_adduction_r	hip_rotation_r	knee_angle_r	knee_angle_r_beta	ankle_angle_r	subtalar_angle_r	mtp_angle_r	hip_flexion_l	hip_adduction_l	hip_rotation_l	knee_angle_l	knee_angle_l_beta	ankle_angle_l	subtalar_angle_l	mtp_angle_l	lumbar_extension	lumbar_bending	lumbar_rotation	arm_flex_r	arm_add_r	arm_rot_r	elbow_flex_r	pro_sup_r	wrist_flex_r	wrist_dev_r	arm_flex_l	arm_add_l	arm_rot_l	elbow_flex_l	pro_sup_l	wrist_flex_l	wrist_dev_l
      5.30000000	    -11.19944656	     -2.02632372	      3.02814707	     -0.54716442	      0.93513661	      0.27397855	     37.82284737	     -0.89891243	    -12.98026394	     47.08980035	      0.82187206	     18.40861901	      0.00000000	      0.00000000	     26.38197293	     -5.89633864	      6.85586139	    116.99625105	      2.04196979	     -1.69893502	      0.00000000	      0.00000000	    -21.71134025	      5.82676460	     -9.31305716	      0.44149276	    -16.66670502	    -10.04187526	    101.48319267	     50.45621605	      0.00000000	      0.00000000	    -13.77936391	    -14.52194200	    -12.79715450	     79.39501488	     40.04016196	      0.00000000	      0.00000000
      5.30500000	    -10.71417883	     -1.62067111	      1.83919122	     -0.51530111	      0.93573565	      0.27560145	     35.67767812	     -0.45475296	    -11.71437427	     48.17556199	      0.84082218	     20.40452598	      0.00000000	      0.00000000	     28.72086711	     -5.74780653	      6.24703385	    118.06082750	      2.06055016	     -1.06183242	      0.00000000	      0.00000000	    -22.13902770	      4.80541099	     -8.10693195	      4.09908080	    -16.40716089	     -9.22461602	    102.75571758	     50.31632032	      0.00000000	      0.00000000	    -15.62715904	    -14.09409625	    -12.97746661	     77.49812643	     40.06616110	      0.00000000	      0.00000000
      5.31000000	    -10.24088308	     -1.16247192	      0.71139040	     -0.48331047	      0.93652104	      0.27714712	     33.37339642	     -0.19225013	    -10.49856536	     48.94327034	      0.85422121	     22.09164990	      0.00000000	      0.00000000	     31.09011896	     -5.57594693	      5.62485129	    118.76506207	      2.07284137	     -0.48262284	      0.00000000	      0.00000000	    -22.44474576	      3.71928091	     -6.76900268	      7.45795743	    -16.13201800	     -8.75920833	    104.19328361	     50.31802579	      0.00000000	      0.00000000	    -17.42836218	    -13.87544293	    -12.73838072	     75.86408725	     40.03193180	      0.00000000	      0.00000000
      5.31500000	     -9.79478552	     -0.64904824	     -0.33429311	     -0.45118364	      0.93741950	      0.27859379	     30.95366087	     -0.13904766	     -9.36121304	     49.42944118	      0.86270650	     23.45617062	      0.00000000	      0.00000000	     33.48419626	     -5.36846568	      4.99811303	    119.12369782	      2.07910074	      0.06742048	      0.00000000	      0.00000000	    -22.66615638	      2.55812168	     -5.35216247	     10.37259700	    -15.99344155	     -8.56007228	    106.05307695	     50.41526814	      0.00000000	      0.00000000	    -19.24818212	    -13.69924749	    -12.45409498	     74.66197969	     39.97670645	      0.00000000	      0.00000000
      5.32000000	     -9.39955640	     -0.09578306	     -1.26147546	     -0.41893722	      0.93834616	      0.27988725	     28.47284319	     -0.30246104	     -8.36150677	     49.66926545	      0.86689222	     24.43044004	      0.00000000	      0.00000000	     35.92063305	     -5.11300912	      4.40116339	    119.16251215	      2.07977818	      0.58773181	      0.00000000	      0.00000000	    -22.68701511	      1.38875723	     -4.12671965	     13.33237838	    -15.89553984	     -8.21893278	    107.76388004	     50.50771351	      0.00000000	      0.00000000	    -21.18368130	    -13.64101110	    -12.09608537	     73.68052661	     39.94662588	      0.00000000	      0.00000000
      5.32500000	     -9.07041481	      0.49623772	     -2.06935647	     -0.38658066	      0.93922653	      0.28105133	     25.97921295	     -0.66431174	     -7.49249146	     49.69614698	      0.86736139	     24.97822126	      0.00000000	      0.00000000	     38.39724383	     -4.81147454	      3.83354722	    118.90244883	      2.07523922	      1.06007257	      0.00000000	      0.00000000	    -22.50528688	      0.20795952	     -3.33940960	     16.65260922	    -15.88612012	     -7.30007906	    108.95606183	     50.54870545	      0.00000000	      0.00000000	    -23.72722685	    -13.78083015	    -11.68643364	     73.56054008	     40.05493897	      0.00000000	      0.00000000
      5.33000000	     -8.82646774	      1.11188132	     -2.76305857	     -0.35411544	      0.94000428	      0.28212246	     23.52278591	     -1.18369314	     -6.74518249	     49.54825945	      0.86478027	     25.17613802	      0.00000000	      0.00000000	     40.91565045	     -4.48533785	      3.30264065	    118.36795808	      2.06591060	      1.55143705	      0.00000000	      0.00000000	    -22.19899509	     -0.98008271	     -2.44929303	     19.49319263	    -15.92702025	     -6.83207664	    110.60952815	     50.61568483	      0.00000000	      0.00000000	    -26.08644865	    -13.81413641	    -11.48015294	     73.52509590	     40.16789225	      0.00000000	      0.00000000
      5.33500000	     -8.67615091	      1.74036738	     -3.34618537	     -0.32154325	      0.94064872	      0.28312235	     21.13534335	     -1.82489473	     -6.10942350	     49.25130286	      0.85959740	     24.96707179	      0.00000000	      0.00000000	     43.46826075	     -4.14895864	      2.81264843	    117.57620610	      2.05209192	      2.04876646	      0.00000000	      0.00000000	    -21.71233875	     -2.14304511	     -1.61662882	     22.19053664	    -16.01839770	     -6.41718270	    112.28395460	     50.69439361	      0.00000000	      0.00000000	    -28.49834279	    -13.99349791	    -11.14441350	     73.69202417	     40.29529326	      0.00000000	      0.00000000
      5.34000000	     -8.61932233	      2.37460270	     -3.82279082	     -0.28884458	      0.94116852	      0.28406950	     18.83297618	     -2.55641796	     -5.57014211	     48.83162514	      0.85227264	     24.33024652	      0.00000000	      0.00000000	     46.03621750	     -3.81399633	      2.36610539	    116.53156464	      2.03385949	      2.53358320	      0.00000000	      0.00000000	    -21.05775876	     -3.27990611	     -0.88045777	     24.80539121	    -16.16941956	     -6.02765275	    113.92417972	     50.77294600	      0.00000000	      0.00000000	    -31.01080288	    -14.26237797	    -10.82226213	     74.12969820	     40.45200556	      0.00000000	      0.00000000
      5.34500000	     -8.64852113	      3.00307634	     -4.19022039	     -0.25598747	      0.94160039	      0.28495090	     16.61287150	     -3.34697400	     -5.11723888	     48.29672792	      0.84293692	     23.26693539	      0.00000000	      0.00000000	     48.59044998	     -3.48381659	      1.96601182	    115.23490888	      2.01122857	      2.99595030	      0.00000000	      0.00000000	    -20.27424922	     -4.37105270	     -0.23323274	     27.29799366	    -16.35238333	     -5.65033443	    115.61656617	     50.86320938	      0.00000000	      0.00000000	    -33.57354387	    -14.59487601	    -10.52290368	     74.72502196	     40.60514477	      0.00000000	      0.00000000
      5.35000000	     -8.74577486	      3.62276462	     -4.45598128	     -0.22292599	      0.94201593	      0.28577103	     14.45952838	     -4.17072268	     -4.73120084	     47.64917125	      0.83163492	     21.61009389	      0.00000000	      0.00000000	     51.08523397	     -3.15848039	      1.60051103	    113.68223024	      1.98412922	      3.45107598	      0.00000000	      0.00000000	    -19.36566567	     -5.40361769	      0.40966445	     29.59727801	    -16.51680844	     -5.37540689	    117.36260205	     50.96570178	      0.00000000	      0.00000000	    -35.93605846	    -14.90360297	    -10.32707680	     75.08938818	     40.70006630	      0.00000000	      0.00000000
      5.35500000	     -8.88008655	      4.24862178	     -4.61444255	     -0.18962026	      0.94248611	      0.28649077	     12.34161383	     -5.03857462	     -4.42463483	     46.90525189	      0.81865108	     19.78663375	      0.00000000	      0.00000000	     53.46455436	     -2.80672043	      1.25254177	    111.85980436	      1.95232189	      3.78247163	      0.00000000	      0.00000000	    -18.41924649	     -6.44493379	      0.78280447	     32.01691774	    -16.81113401	     -4.89457112	    118.89372981	     51.04587848	      0.00000000	      0.00000000	    -38.85825134	    -15.33129696	    -10.22305493	     76.37105290	     40.90459299	      0.00000000	      0.00000000
      5.36000000	     -9.03105572	      4.86667083	     -4.67610912	     -0.15602944	      0.94310106	      0.28712159	     10.23128974	     -5.91298708	     -4.18565562	     46.03730963	      0.80350263	     17.39886542	      0.00000000	      0.00000000	     55.67706727	     -2.43958145	      0.91421088	    109.76945901	      1.91583848	      4.07053125	      0.00000000	      0.00000000	    -17.42743882	     -7.42621404	      1.11938241	     34.23945279	    -17.03217041	     -4.47813091	    120.48115850	     51.12100482	      0.00000000	      0.00000000	    -41.52382648	    -15.61963680	    -10.37626710	     77.29612222	     41.07681853	      0.00000000	      0.00000000
      5.36500000	     -9.18231455	      5.47286623	     -4.65386758	     -0.12214152	      0.94391177	      0.28767484	      8.10764350	     -6.77217992	     -4.00422775	     45.03782781	      0.78605838	     14.54674335	      0.00000000	      0.00000000	     57.68652885	     -2.05978622	      0.57427325	    107.41749209	      1.87478891	      4.28541427	      0.00000000	      0.00000000	    -16.42238757	     -8.36405122	      1.45855087	     36.23439237	    -17.26861127	     -4.14153770	    122.13600506	     51.20902597	      0.00000000	      0.00000000	    -43.98402012	    -15.92177447	    -10.60477407	     77.94853030	     41.19238715	      0.00000000	      0.00000000
